<?xml version="1.0" standalone="no"?>
<!DOCTYPE svg PUBLIC "-//W3C//DTD SVG 20010904//EN"
 "http://www.w3.org/TR/2001/REC-SVG-20010904/DTD/svg10.dtd">
<svg version="1.0" xmlns="http://www.w3.org/2000/svg"
 width="500.000000pt" height="500.000000pt" viewBox="0 0 500.000000 500.000000"
 preserveAspectRatio="xMidYMid meet">
<metadata>
Created by potrace 1.14, written by Peter Selinger 2001-2017
</metadata>
<g transform="translate(0.000000,500.000000) scale(0.100000,-0.100000)"
fill="#000000" stroke="none">
<path d="M2119 4284 c-10 -13 -9 -27 10 -85 13 -39 21 -72 19 -74 -2 -2 -191
-67 -419 -144 -413 -138 -512 -179 -620 -252 -284 -192 -427 -520 -379 -871
13 -98 73 -296 117 -382 98 -194 255 -357 428 -444 135 -67 349 -111 470 -97
28 4 176 48 330 99 154 51 332 109 395 129 l116 37 113 120 c86 92 119 120
139 121 21 1 23 2 7 6 -11 3 -24 12 -30 19 -8 12 -19 5 -58 -34 l-47 -48 -176
32 c-96 18 -177 34 -180 36 -2 3 67 75 155 160 l158 156 179 -32 178 -33 75
-152 c60 -124 72 -154 60 -162 -12 -7 -12 -9 1 -9 8 0 0 -15 -23 -38 -20 -21
-37 -41 -37 -44 0 -4 20 -16 44 -26 55 -25 120 -83 136 -122 18 -44 8 -146
-20 -205 -13 -27 -47 -72 -75 -100 -55 -55 -17 -39 -634 -270 -167 -62 -316
-122 -329 -132 -92 -69 -93 -190 -3 -250 59 -39 105 -32 332 52 114 42 211 73
221 69 10 -3 21 -17 24 -31 9 -36 -16 -55 -125 -94 -52 -18 -107 -44 -123 -57
-106 -89 -59 -255 75 -269 44 -5 20 -13 617 209 118 44 255 100 303 126 372
195 565 571 503 977 -41 264 -153 493 -317 651 -154 147 -306 220 -510 245
-90 11 -303 -3 -322 -20 -4 -4 2 -29 14 -55 11 -26 19 -49 17 -52 -3 -2 -51 5
-109 16 -57 11 -115 20 -129 20 -14 0 -72 -18 -130 -41 -58 -22 -208 -78 -335
-124 -126 -45 -257 -92 -290 -105 -88 -32 -129 -38 -185 -28 -75 13 -134 42
-184 88 -103 95 -92 223 30 359 50 55 107 89 214 127 309 107 563 194 569 194
4 0 15 -25 25 -55 16 -50 20 -55 46 -55 27 0 46 21 182 192 84 106 208 262
276 347 130 164 143 193 95 212 -38 14 -831 209 -853 209 -9 0 -23 -7 -31 -16z"/>
<path d="M2888 2433 c6 -2 18 -2 25 0 6 3 1 5 -13 5 -14 0 -19 -2 -12 -5z"/>
<path d="M2938 2423 c6 -2 18 -2 25 0 6 3 1 5 -13 5 -14 0 -19 -2 -12 -5z"/>
<path d="M2993 2413 c9 -2 23 -2 30 0 6 3 -1 5 -18 5 -16 0 -22 -2 -12 -5z"/>
<path d="M3048 2403 c6 -2 18 -2 25 0 6 3 1 5 -13 5 -14 0 -19 -2 -12 -5z"/>
<path d="M3098 2393 c6 -2 18 -2 25 0 6 3 1 5 -13 5 -14 0 -19 -2 -12 -5z"/>
<path d="M1811 1300 c-40 -16 -85 -39 -99 -52 -83 -77 -62 -210 41 -252 53
-22 74 -19 193 25 144 54 184 183 84 273 -35 32 -46 36 -93 36 -33 -1 -78 -11
-126 -30z"/>
</g>
</svg>
